<?xml version="1.0" encoding="utf-8"?>
<!-- Generator: Adobe Illustrator 25.4.1, SVG Export Plug-In . SVG Version: 6.00 Build 0)  -->
<svg version="1.1" id="图层_1" xmlns="http://www.w3.org/2000/svg" xmlns:xlink="http://www.w3.org/1999/xlink" x="0px" y="0px"
	 viewBox="0 0 1024 1024" style="enable-background:new 0 0 1024 1024;" xml:space="preserve">
<path d="M512,0C229.2,0,0,229.2,0,512s229.2,512,512,512s512-229.2,512-512S794.8,0,512,0z M418.9,186.2h395.6l-23.7,20.5
	c0,0.9,0.5,1.8,0.5,2.8v122.9c14,7.9,23.3,22.8,23.3,40V512c0,25.6-20.9,46.5-46.5,46.5s-46.5-20.9-46.5-46.5V372.4
	c0-17.2,9.3-32.1,23.3-40V246l-83.5,71.7c8.1,16.3,13.7,36.1,13.7,60.3c0,63.3-35.4,94.7-70.5,122.6c-10.9,11.2-23.8,23.3-23.8,42.1
	c0,18.6,12.8,29.1,22.1,36.5l30,24c37,31.7,70.5,60.8,70.5,119.6c0,80.3-76.6,161.5-220.9,161.5c-121.7,0-180.4-58.9-180.4-122.2
	c0-30.7,15.1-74.3,64.7-104.3c51.9-32.3,122.4-36.8,160.4-39.3c-11.9-15.4-25.4-31.4-25.4-58.2c0-14.2,4.4-22.8,8.6-33.3
	c-9.3,0.9-18.6,1.9-27,1.9c-88.4,0-138.9-67-139.4-133.4H186.2L418.9,186.2z M495,261.6c-21.6,0-45.1,11-58.6,28.4
	c-14.2,17.7-18.6,40.7-18.6,62.8c0,57.3,33.1,152.2,105,152.2c21.2,0,43.7-10.2,57.2-24c19.1-19.8,21-47,21-62.1
	C600.9,357.2,564.8,261.6,495,261.6z M536.2,642.5c-7.4,0-52.8,1.6-88,13.7c-18.6,7-72.1,27.3-72.1,88
	c0,60.7,57.7,104.3,147.5,104.3c80.8,0,123.4-39.6,123.4-92.4c0-43.5-27.5-66.6-91.2-112.6C549,642.6,544.8,642.5,536.2,642.5z"/>
</svg>
