<?xml version="1.0" encoding="utf-8"?>
<!-- Generator: Adobe Illustrator 25.4.1, SVG Export Plug-In . SVG Version: 6.00 Build 0)  -->
<svg version="1.1" id="Layer_1" xmlns="http://www.w3.org/2000/svg" xmlns:xlink="http://www.w3.org/1999/xlink" x="0px" y="0px"
	 viewBox="0 0 1024 1024" style="enable-background:new 0 0 1024 1024;" xml:space="preserve">
<style type="text/css">
	.st0{fill:#FFFFFF;}
</style>
<path d="M1024,512c0,282.8-229.2,512-512,512S0,794.8,0,512S229.2,0,512,0S1024,229.2,1024,512z"/>
<g>
	<path class="st0" d="M345.2,744.8h-61.6V316.4h61.6V510V744.8z"/>
	<path class="st0" d="M435.6,316.4H602c158.4,0,228,113.2,228,214.4c0,110-86,214.4-227.2,214.4H435.6
		C435.6,745.2,435.6,316.4,435.6,316.4z M497.2,689.6h98c139.6,0,171.6-106,171.6-158.8c0-86-54.8-158.8-174.8-158.8h-94.8
		L497.2,689.6L497.2,689.6z"/>
	<path class="st0" d="M354.8,227.2c0,22-18,40.4-40.4,40.4S274,249.2,274,227.2c0-22.4,18-40.4,40.4-40.4
		C336.8,186.8,354.8,205.2,354.8,227.2z"/>
</g>
</svg>
