<?xml version="1.0" encoding="utf-8"?>
<!-- Generator: Adobe Illustrator 25.4.1, SVG Export Plug-In . SVG Version: 6.00 Build 0)  -->
<svg version="1.1" id="图层_1" xmlns="http://www.w3.org/2000/svg" xmlns:xlink="http://www.w3.org/1999/xlink" x="0px" y="0px"
	 viewBox="0 0 1024 1024" style="enable-background:new 0 0 1024 1024;" xml:space="preserve">
<path d="M1024,195.4c-37.7,16.8-78.2,28-120.7,33.1c43.4-26,76.8-67.2,92.4-116.2c-40.5,24-85.6,41.5-133.4,50.9
	c-38.3-40.9-92.9-66.3-153.3-66.3c-116,0-210.1,94-210.1,210.1c0,16.4,1.9,32.5,5.5,47.9c-174.6-8.8-329.4-92.4-433-219.5
	C53.2,166.4,42.9,202.5,42.9,241c0,72.9,37,137.2,93.5,174.9c-34.5-1.1-66.9-10.6-95.2-26.3c0,0.9,0,1.8,0,2.6
	c0,101.8,72.5,186.7,168.5,206.1c-17.6,4.8-36.2,7.3-55.3,7.3c-13.6,0-26.7-1.3-39.6-3.8c26.8,83.4,104.4,144.3,196.2,146
	c-71.8,56.3-162.4,89.9-260.9,89.9c-17,0-33.7-1-50-3c92.9,59.7,203.3,94.4,322,94.4c386.4,0,597.8-320.1,597.8-597.7
	c0-9.1-0.2-18.3-0.6-27.2C960.2,274.6,995.8,237.5,1024,195.4z"/>
</svg>
